<svg xmlns="http://www.w3.org/2000/svg" version="1.1" xmlns:xlink="http://www.w3.org/1999/xlink" width="1000" height="1000"><g clip-path="url(#SvgjsClipPath1003)"><rect width="1000" height="1000" fill="#ffffff"></rect><g transform="matrix(3.5,0,0,3.5,150,150)"><svg xmlns="http://www.w3.org/2000/svg" version="1.1" xmlns:xlink="http://www.w3.org/1999/xlink" width="200" height="200"><svg xmlns="http://www.w3.org/2000/svg" version="1.1" xmlns:xlink="http://www.w3.org/1999/xlink" viewBox="0 0 200 200"><rect width="200" height="200" fill="url('#gradient')"></rect><defs><linearGradient id="gradient" gradientTransform="rotate(45 0.5 0.5)"><stop offset="0%" stop-color="#000000"></stop><stop offset="100%" stop-color="#000000"></stop></linearGradient><clipPath id="SvgjsClipPath1003"><rect width="1000" height="1000" x="0" y="0" rx="350" ry="350"></rect></clipPath></defs><g><g fill="#ffffff" transform="matrix(7.275133819951338,0,0,7.275133819951338,57.259563126123155,148.1987381196776)" stroke="#ffffff" stroke-width="0"><path d="M2.97-3.19L2.97-3.19Q3.75-3.19 4.27-2.73Q4.79-2.27 4.79-1.54Q4.79-0.82 4.27-0.36Q3.75 0.11 2.97 0.11L2.97 0.11Q2.18 0.11 1.67-0.36Q1.15-0.83 1.15-1.54Q1.15-2.26 1.67-2.72Q2.18-3.19 2.97-3.19ZM2.97-10.99L2.97-10.99Q3.75-10.99 4.27-10.52Q4.79-10.06 4.79-9.34Q4.79-8.61 4.27-8.15Q3.75-7.69 2.97-7.69L2.97-7.69Q2.18-7.69 1.67-8.15Q1.15-8.62 1.15-9.34Q1.15-10.05 1.67-10.52Q2.18-10.99 2.97-10.99ZM6.14-14.26L6.14-16.66L10.60-16.66L10.60 3.41L6.14 3.41L6.14 1.02L7.30 1.02L7.30-14.26L6.14-14.26Z"></path></g></g></svg></svg></g></g></svg>